<?xml version="1.0" encoding="UTF-8" standalone="no"?>
<!DOCTYPE svg PUBLIC "-//W3C//DTD SVG 1.1//EN"
 "http://www.w3.org/Graphics/SVG/1.1/DTD/svg11.dtd">
<!-- Generated by graphviz version 2.44.1 (20200629.0846)
 -->
<!-- Title: dependencies Pages: 1 -->
<svg width="2345pt" height="284pt"
 viewBox="0.00 0.00 2345.00 284.00" xmlns="http://www.w3.org/2000/svg" xmlns:xlink="http://www.w3.org/1999/xlink">
<g id="graph0" class="graph" transform="scale(1 1) rotate(0) translate(4 280)">
<title>dependencies</title>
<polygon fill="white" stroke="transparent" points="-4,4 -4,-280 2341,-280 2341,4 -4,4"/>
<text text-anchor="start" x="1147.51" y="-42.4" font-family="sans-serif" font-weight="bold" font-size="14.00">Legend</text>
<polygon fill="#ffffb3" stroke="transparent" points="934.5,-10 934.5,-30 954.5,-30 954.5,-10 934.5,-10"/>
<text text-anchor="start" x="958.13" y="-15.4" font-family="sans-serif" font-size="14.00"> &#160;Declarations</text>
<polygon fill="#8dd3c7" stroke="transparent" points="1047.5,-10 1047.5,-30 1067.5,-30 1067.5,-10 1047.5,-10"/>
<text text-anchor="start" x="1071.23" y="-15.4" font-family="sans-serif" font-size="14.00"> &#160;Module</text>
<polygon fill="#80b1d3" stroke="transparent" points="1133.5,-10 1133.5,-30 1153.5,-30 1153.5,-10 1133.5,-10"/>
<text text-anchor="start" x="1157.28" y="-15.4" font-family="sans-serif" font-size="14.00"> &#160;Bootstrap</text>
<polygon fill="#fdb462" stroke="transparent" points="1230.5,-10 1230.5,-30 1250.5,-30 1250.5,-10 1230.5,-10"/>
<text text-anchor="start" x="1254.17" y="-15.4" font-family="sans-serif" font-size="14.00"> &#160;Providers</text>
<polygon fill="#fb8072" stroke="transparent" points="1326.5,-10 1326.5,-30 1346.5,-30 1346.5,-10 1326.5,-10"/>
<text text-anchor="start" x="1350.23" y="-15.4" font-family="sans-serif" font-size="14.00"> &#160;Exports</text>
<g id="clust1" class="cluster">
<title>cluster_AppModule</title>
<polygon fill="none" stroke="black" stroke-dasharray="1,5" points="8,-70 8,-268 2329,-268 2329,-70 8,-70"/>
</g>
<g id="clust18" class="cluster">
<title>cluster_AppModule_bootstrap</title>
<polygon fill="none" stroke="black" points="1057,-208 1057,-260 1181,-260 1181,-208 1057,-208"/>
</g>
<g id="clust19" class="cluster">
<title>cluster_AppModule_providers</title>
<polygon fill="none" stroke="black" points="2157,-78 2157,-130 2321,-130 2321,-78 2157,-78"/>
</g>
<g id="clust16" class="cluster">
<title>cluster_AppModule_imports</title>
<polygon fill="none" stroke="black" points="2005,-78 2005,-130 2149,-130 2149,-78 2005,-78"/>
</g>
<g id="clust2" class="cluster">
<title>cluster_AppModule_declarations</title>
<polygon fill="none" stroke="black" points="16,-78 16,-130 1997,-130 1997,-78 16,-78"/>
</g>
<!-- AdvancedSearchComponent -->
<g id="node1" class="node">
<title>AdvancedSearchComponent</title>
<polygon fill="#ffffb3" stroke="black" points="1989.17,-122 1812.83,-122 1812.83,-86 1989.17,-86 1989.17,-122"/>
<text text-anchor="middle" x="1901" y="-99.8" font-family="Times,serif" font-size="14.00">AdvancedSearchComponent</text>
</g>
<!-- AppModule -->
<g id="node14" class="node">
<title>AppModule</title>
<polygon fill="#8dd3c7" stroke="black" points="1160.66,-187 1157.66,-191 1136.66,-191 1133.66,-187 1077.34,-187 1077.34,-151 1160.66,-151 1160.66,-187"/>
<text text-anchor="middle" x="1119" y="-164.8" font-family="Times,serif" font-size="14.00">AppModule</text>
</g>
<!-- AdvancedSearchComponent&#45;&gt;AppModule -->
<g id="edge1" class="edge">
<title>AdvancedSearchComponent&#45;&gt;AppModule</title>
<path fill="none" stroke="black" d="M1901,-122.03C1901,-142.77 1901,-174 1901,-174 1901,-174 1170.77,-174 1170.77,-174"/>
<polygon fill="black" stroke="black" points="1170.77,-170.5 1160.77,-174 1170.77,-177.5 1170.77,-170.5"/>
</g>
<!-- AllBooksComponent -->
<g id="node2" class="node">
<title>AllBooksComponent</title>
<polygon fill="#ffffb3" stroke="black" points="1794.5,-122 1659.5,-122 1659.5,-86 1794.5,-86 1794.5,-122"/>
<text text-anchor="middle" x="1727" y="-99.8" font-family="Times,serif" font-size="14.00">AllBooksComponent</text>
</g>
<!-- AllBooksComponent&#45;&gt;AppModule -->
<g id="edge2" class="edge">
<title>AllBooksComponent&#45;&gt;AppModule</title>
<path fill="none" stroke="black" d="M1727,-122.11C1727,-141.34 1727,-169 1727,-169 1727,-169 1170.79,-169 1170.79,-169"/>
<polygon fill="black" stroke="black" points="1170.79,-165.5 1160.79,-169 1170.79,-172.5 1170.79,-165.5"/>
</g>
<!-- AppComponent -->
<g id="node3" class="node">
<title>AppComponent</title>
<polygon fill="#ffffb3" stroke="black" points="1641.94,-122 1536.06,-122 1536.06,-86 1641.94,-86 1641.94,-122"/>
<text text-anchor="middle" x="1589" y="-99.8" font-family="Times,serif" font-size="14.00">AppComponent</text>
</g>
<!-- AppComponent&#45;&gt;AppModule -->
<g id="edge3" class="edge">
<title>AppComponent&#45;&gt;AppModule</title>
<path fill="none" stroke="black" d="M1589,-122.3C1589,-140.27 1589,-165 1589,-165 1589,-165 1170.71,-165 1170.71,-165"/>
<polygon fill="black" stroke="black" points="1170.71,-161.5 1160.71,-165 1170.71,-168.5 1170.71,-161.5"/>
</g>
<!-- BookCardComponent -->
<g id="node4" class="node">
<title>BookCardComponent</title>
<polygon fill="#ffffb3" stroke="black" points="1518.38,-122 1379.62,-122 1379.62,-86 1518.38,-86 1518.38,-122"/>
<text text-anchor="middle" x="1449" y="-99.8" font-family="Times,serif" font-size="14.00">BookCardComponent</text>
</g>
<!-- BookCardComponent&#45;&gt;AppModule -->
<g id="edge4" class="edge">
<title>BookCardComponent&#45;&gt;AppModule</title>
<path fill="none" stroke="black" d="M1449,-122.03C1449,-138.4 1449,-160 1449,-160 1449,-160 1170.79,-160 1170.79,-160"/>
<polygon fill="black" stroke="black" points="1170.79,-156.5 1160.79,-160 1170.79,-163.5 1170.79,-156.5"/>
</g>
<!-- BookDisplayComponent -->
<g id="node5" class="node">
<title>BookDisplayComponent</title>
<polygon fill="#ffffb3" stroke="black" points="1361.72,-122 1206.28,-122 1206.28,-86 1361.72,-86 1361.72,-122"/>
<text text-anchor="middle" x="1284" y="-99.8" font-family="Times,serif" font-size="14.00">BookDisplayComponent</text>
</g>
<!-- BookDisplayComponent&#45;&gt;AppModule -->
<g id="edge5" class="edge">
<title>BookDisplayComponent&#45;&gt;AppModule</title>
<path fill="none" stroke="black" d="M1284,-122.19C1284,-137.18 1284,-156 1284,-156 1284,-156 1171.06,-156 1171.06,-156"/>
<polygon fill="black" stroke="black" points="1171.06,-152.5 1161.06,-156 1171.06,-159.5 1171.06,-152.5"/>
</g>
<!-- BookPageComponent -->
<g id="node6" class="node">
<title>BookPageComponent</title>
<polygon fill="#ffffb3" stroke="black" points="1188.38,-122 1049.62,-122 1049.62,-86 1188.38,-86 1188.38,-122"/>
<text text-anchor="middle" x="1119" y="-99.8" font-family="Times,serif" font-size="14.00">BookPageComponent</text>
</g>
<!-- BookPageComponent&#45;&gt;AppModule -->
<g id="edge6" class="edge">
<title>BookPageComponent&#45;&gt;AppModule</title>
<path fill="none" stroke="black" d="M1119,-122.11C1119,-122.11 1119,-140.99 1119,-140.99"/>
<polygon fill="black" stroke="black" points="1115.5,-140.99 1119,-150.99 1122.5,-140.99 1115.5,-140.99"/>
</g>
<!-- HomeComponent -->
<g id="node7" class="node">
<title>HomeComponent</title>
<polygon fill="#ffffb3" stroke="black" points="1031.55,-122 916.45,-122 916.45,-86 1031.55,-86 1031.55,-122"/>
<text text-anchor="middle" x="974" y="-99.8" font-family="Times,serif" font-size="14.00">HomeComponent</text>
</g>
<!-- HomeComponent&#45;&gt;AppModule -->
<g id="edge7" class="edge">
<title>HomeComponent&#45;&gt;AppModule</title>
<path fill="none" stroke="black" d="M974,-122.19C974,-137.18 974,-156 974,-156 974,-156 1067.06,-156 1067.06,-156"/>
<polygon fill="black" stroke="black" points="1067.06,-159.5 1077.06,-156 1067.06,-152.5 1067.06,-159.5"/>
</g>
<!-- InterestsComponent -->
<g id="node8" class="node">
<title>InterestsComponent</title>
<polygon fill="#ffffb3" stroke="black" points="898.25,-122 769.75,-122 769.75,-86 898.25,-86 898.25,-122"/>
<text text-anchor="middle" x="834" y="-99.8" font-family="Times,serif" font-size="14.00">InterestsComponent</text>
</g>
<!-- InterestsComponent&#45;&gt;AppModule -->
<g id="edge8" class="edge">
<title>InterestsComponent&#45;&gt;AppModule</title>
<path fill="none" stroke="black" d="M834,-122.03C834,-138.4 834,-160 834,-160 834,-160 1067.25,-160 1067.25,-160"/>
<polygon fill="black" stroke="black" points="1067.25,-163.5 1077.25,-160 1067.25,-156.5 1067.25,-163.5"/>
</g>
<!-- NotificationToastComponent -->
<g id="node9" class="node">
<title>NotificationToastComponent</title>
<polygon fill="#ffffb3" stroke="black" points="752.08,-122 571.92,-122 571.92,-86 752.08,-86 752.08,-122"/>
<text text-anchor="middle" x="662" y="-99.8" font-family="Times,serif" font-size="14.00">NotificationToastComponent</text>
</g>
<!-- NotificationToastComponent&#45;&gt;AppModule -->
<g id="edge9" class="edge">
<title>NotificationToastComponent&#45;&gt;AppModule</title>
<path fill="none" stroke="black" d="M662,-122.3C662,-140.27 662,-165 662,-165 662,-165 1067.23,-165 1067.23,-165"/>
<polygon fill="black" stroke="black" points="1067.23,-168.5 1077.23,-165 1067.23,-161.5 1067.23,-168.5"/>
</g>
<!-- RatingsComponent -->
<g id="node10" class="node">
<title>RatingsComponent</title>
<polygon fill="#ffffb3" stroke="black" points="554.11,-122 429.89,-122 429.89,-86 554.11,-86 554.11,-122"/>
<text text-anchor="middle" x="492" y="-99.8" font-family="Times,serif" font-size="14.00">RatingsComponent</text>
</g>
<!-- RatingsComponent&#45;&gt;AppModule -->
<g id="edge10" class="edge">
<title>RatingsComponent&#45;&gt;AppModule</title>
<path fill="none" stroke="black" d="M492,-122.11C492,-141.34 492,-169 492,-169 492,-169 1066.89,-169 1066.89,-169"/>
<polygon fill="black" stroke="black" points="1066.89,-172.5 1076.89,-169 1066.89,-165.5 1066.89,-172.5"/>
</g>
<!-- ReviewComponent -->
<g id="node11" class="node">
<title>ReviewComponent</title>
<polygon fill="#ffffb3" stroke="black" points="412.1,-122 287.9,-122 287.9,-86 412.1,-86 412.1,-122"/>
<text text-anchor="middle" x="350" y="-99.8" font-family="Times,serif" font-size="14.00">ReviewComponent</text>
</g>
<!-- ReviewComponent&#45;&gt;AppModule -->
<g id="edge11" class="edge">
<title>ReviewComponent&#45;&gt;AppModule</title>
<path fill="none" stroke="black" d="M350,-122.03C350,-142.77 350,-174 350,-174 350,-174 1067.11,-174 1067.11,-174"/>
<polygon fill="black" stroke="black" points="1067.11,-177.5 1077.11,-174 1067.11,-170.5 1067.11,-177.5"/>
</g>
<!-- SearchComponent -->
<g id="node12" class="node">
<title>SearchComponent</title>
<polygon fill="#ffffb3" stroke="black" points="269.92,-122 150.08,-122 150.08,-86 269.92,-86 269.92,-122"/>
<text text-anchor="middle" x="210" y="-99.8" font-family="Times,serif" font-size="14.00">SearchComponent</text>
</g>
<!-- SearchComponent&#45;&gt;AppModule -->
<g id="edge12" class="edge">
<title>SearchComponent&#45;&gt;AppModule</title>
<path fill="none" stroke="black" d="M210,-122.29C210,-144.21 210,-178 210,-178 210,-178 1067.28,-178 1067.28,-178"/>
<polygon fill="black" stroke="black" points="1067.28,-181.5 1077.28,-178 1067.28,-174.5 1067.28,-181.5"/>
</g>
<!-- UserComponent -->
<g id="node13" class="node">
<title>UserComponent</title>
<polygon fill="#ffffb3" stroke="black" points="131.76,-122 24.24,-122 24.24,-86 131.76,-86 131.76,-122"/>
<text text-anchor="middle" x="78" y="-99.8" font-family="Times,serif" font-size="14.00">UserComponent</text>
</g>
<!-- UserComponent&#45;&gt;AppModule -->
<g id="edge13" class="edge">
<title>UserComponent&#45;&gt;AppModule</title>
<path fill="none" stroke="black" d="M78,-122.32C78,-145.66 78,-183 78,-183 78,-183 1067.23,-183 1067.23,-183"/>
<polygon fill="black" stroke="black" points="1067.23,-186.5 1077.23,-183 1067.23,-179.5 1067.23,-186.5"/>
</g>
<!-- AppComponent  -->
<g id="node16" class="node">
<title>AppComponent </title>
<polygon fill="#80b1d3" stroke="black" points="1173.44,-252 1064.56,-252 1064.56,-216 1173.44,-216 1173.44,-252"/>
<text text-anchor="middle" x="1119" y="-229.8" font-family="Times,serif" font-size="14.00">AppComponent </text>
</g>
<!-- AppModule&#45;&gt;AppComponent  -->
<g id="edge15" class="edge">
<title>AppModule&#45;&gt;AppComponent </title>
<path fill="none" stroke="black" stroke-dasharray="1,5" d="M1119,-187.11C1119,-187.11 1119,-205.99 1119,-205.99"/>
<polygon fill="black" stroke="black" points="1115.5,-205.99 1119,-215.99 1122.5,-205.99 1115.5,-205.99"/>
</g>
<!-- AppRoutingModule -->
<g id="node15" class="node">
<title>AppRoutingModule</title>
<polygon fill="#8dd3c7" stroke="black" points="2141.27,-122 2138.27,-126 2117.27,-126 2114.27,-122 2012.73,-122 2012.73,-86 2141.27,-86 2141.27,-122"/>
<text text-anchor="middle" x="2077" y="-99.8" font-family="Times,serif" font-size="14.00">AppRoutingModule</text>
</g>
<!-- AppRoutingModule&#45;&gt;AppModule -->
<g id="edge14" class="edge">
<title>AppRoutingModule&#45;&gt;AppModule</title>
<path fill="none" stroke="black" d="M2077,-122.29C2077,-144.21 2077,-178 2077,-178 2077,-178 1170.78,-178 1170.78,-178"/>
<polygon fill="black" stroke="black" points="1170.78,-174.5 1160.78,-178 1170.78,-181.5 1170.78,-174.5"/>
</g>
<!-- ErrorInterceptor -->
<g id="node17" class="node">
<title>ErrorInterceptor</title>
<ellipse fill="#fdb462" stroke="black" cx="2239" cy="-104" rx="73.53" ry="18"/>
<text text-anchor="middle" x="2239" y="-99.8" font-family="Times,serif" font-size="14.00">ErrorInterceptor</text>
</g>
<!-- ErrorInterceptor&#45;&gt;AppModule -->
<g id="edge16" class="edge">
<title>ErrorInterceptor&#45;&gt;AppModule</title>
<path fill="none" stroke="black" d="M2239,-122.32C2239,-145.66 2239,-183 2239,-183 2239,-183 1170.86,-183 1170.86,-183"/>
<polygon fill="black" stroke="black" points="1170.86,-179.5 1160.86,-183 1170.86,-186.5 1170.86,-179.5"/>
</g>
</g>
</svg>
