<?xml version="1.0" encoding="UTF-8" standalone="no"?>
<!DOCTYPE svg PUBLIC "-//W3C//DTD SVG 1.1//EN"
 "http://www.w3.org/Graphics/SVG/1.1/DTD/svg11.dtd">
<!-- Generated by graphviz version 2.44.1 (20200629.0846)
 -->
<!-- Title: dependencies Pages: 1 -->
<svg width="2345pt" height="284pt"
 viewBox="0.00 0.00 2345.00 284.00" xmlns="http://www.w3.org/2000/svg" xmlns:xlink="http://www.w3.org/1999/xlink">
<g id="graph0" class="graph" transform="scale(1 1) rotate(0) translate(4 280)">
<title>dependencies</title>
<polygon fill="white" stroke="transparent" points="-4,4 -4,-280 2341,-280 2341,4 -4,4"/>
<text text-anchor="start" x="1147.51" y="-42.4" font-family="sans-serif" font-weight="bold" font-size="14.00">Legend</text>
<polygon fill="#ffffb3" stroke="transparent" points="934.5,-10 934.5,-30 954.5,-30 954.5,-10 934.5,-10"/>
<text text-anchor="start" x="958.13" y="-15.4" font-family="sans-serif" font-size="14.00"> &#160;Declarations</text>
<polygon fill="#8dd3c7" stroke="transparent" points="1047.5,-10 1047.5,-30 1067.5,-30 1067.5,-10 1047.5,-10"/>
<text text-anchor="start" x="1071.23" y="-15.4" font-family="sans-serif" font-size="14.00"> &#160;Module</text>
<polygon fill="#80b1d3" stroke="transparent" points="1133.5,-10 1133.5,-30 1153.5,-30 1153.5,-10 1133.5,-10"/>
<text text-anchor="start" x="1157.28" y="-15.4" font-family="sans-serif" font-size="14.00"> &#160;Bootstrap</text>
<polygon fill="#fdb462" stroke="transparent" points="1230.5,-10 1230.5,-30 1250.5,-30 1250.5,-10 1230.5,-10"/>
<text text-anchor="start" x="1254.17" y="-15.4" font-family="sans-serif" font-size="14.00"> &#160;Providers</text>
<polygon fill="#fb8072" stroke="transparent" points="1326.5,-10 1326.5,-30 1346.5,-30 1346.5,-10 1326.5,-10"/>
<text text-anchor="start" x="1350.23" y="-15.4" font-family="sans-serif" font-size="14.00"> &#160;Exports</text>
<g id="clust1" class="cluster">
<title>cluster_AppModule</title>
<polygon fill="none" stroke="black" stroke-dasharray="1,5" points="8,-70 8,-268 2329,-268 2329,-70 8,-70"/>
</g>
<g id="clust2" class="cluster">
<title>cluster_AppModule_declarations</title>
<polygon fill="none" stroke="black" points="340,-78 340,-130 2321,-130 2321,-78 340,-78"/>
</g>
<g id="clust16" class="cluster">
<title>cluster_AppModule_imports</title>
<polygon fill="none" stroke="black" points="188,-78 188,-130 332,-130 332,-78 188,-78"/>
</g>
<g id="clust18" class="cluster">
<title>cluster_AppModule_bootstrap</title>
<polygon fill="none" stroke="black" points="1096,-208 1096,-260 1220,-260 1220,-208 1096,-208"/>
</g>
<g id="clust19" class="cluster">
<title>cluster_AppModule_providers</title>
<polygon fill="none" stroke="black" points="16,-78 16,-130 180,-130 180,-78 16,-78"/>
</g>
<!-- AdvancedSearchComponent -->
<g id="node1" class="node">
<title>AdvancedSearchComponent</title>
<polygon fill="#ffffb3" stroke="black" points="2313.17,-122 2136.83,-122 2136.83,-86 2313.17,-86 2313.17,-122"/>
<text text-anchor="middle" x="2225" y="-99.8" font-family="Times,serif" font-size="14.00">AdvancedSearchComponent</text>
</g>
<!-- AppModule -->
<g id="node14" class="node">
<title>AppModule</title>
<polygon fill="#8dd3c7" stroke="black" points="1199.66,-187 1196.66,-191 1175.66,-191 1172.66,-187 1116.34,-187 1116.34,-151 1199.66,-151 1199.66,-187"/>
<text text-anchor="middle" x="1158" y="-164.8" font-family="Times,serif" font-size="14.00">AppModule</text>
</g>
<!-- AdvancedSearchComponent&#45;&gt;AppModule -->
<g id="edge1" class="edge">
<title>AdvancedSearchComponent&#45;&gt;AppModule</title>
<path fill="none" stroke="black" d="M2225,-122.32C2225,-145.66 2225,-183 2225,-183 2225,-183 1209.83,-183 1209.83,-183"/>
<polygon fill="black" stroke="black" points="1209.83,-179.5 1199.83,-183 1209.83,-186.5 1209.83,-179.5"/>
</g>
<!-- AllBooksComponent -->
<g id="node2" class="node">
<title>AllBooksComponent</title>
<polygon fill="#ffffb3" stroke="black" points="2118.5,-122 1983.5,-122 1983.5,-86 2118.5,-86 2118.5,-122"/>
<text text-anchor="middle" x="2051" y="-99.8" font-family="Times,serif" font-size="14.00">AllBooksComponent</text>
</g>
<!-- AllBooksComponent&#45;&gt;AppModule -->
<g id="edge2" class="edge">
<title>AllBooksComponent&#45;&gt;AppModule</title>
<path fill="none" stroke="black" d="M2051,-122.29C2051,-144.21 2051,-178 2051,-178 2051,-178 1209.87,-178 1209.87,-178"/>
<polygon fill="black" stroke="black" points="1209.87,-174.5 1199.87,-178 1209.87,-181.5 1209.87,-174.5"/>
</g>
<!-- AppComponent -->
<g id="node3" class="node">
<title>AppComponent</title>
<polygon fill="#ffffb3" stroke="black" points="1965.94,-122 1860.06,-122 1860.06,-86 1965.94,-86 1965.94,-122"/>
<text text-anchor="middle" x="1913" y="-99.8" font-family="Times,serif" font-size="14.00">AppComponent</text>
</g>
<!-- AppComponent&#45;&gt;AppModule -->
<g id="edge3" class="edge">
<title>AppComponent&#45;&gt;AppModule</title>
<path fill="none" stroke="black" d="M1913,-122.03C1913,-142.77 1913,-174 1913,-174 1913,-174 1209.67,-174 1209.67,-174"/>
<polygon fill="black" stroke="black" points="1209.67,-170.5 1199.67,-174 1209.67,-177.5 1209.67,-170.5"/>
</g>
<!-- BookCardComponent -->
<g id="node4" class="node">
<title>BookCardComponent</title>
<polygon fill="#ffffb3" stroke="black" points="1842.38,-122 1703.62,-122 1703.62,-86 1842.38,-86 1842.38,-122"/>
<text text-anchor="middle" x="1773" y="-99.8" font-family="Times,serif" font-size="14.00">BookCardComponent</text>
</g>
<!-- BookCardComponent&#45;&gt;AppModule -->
<g id="edge4" class="edge">
<title>BookCardComponent&#45;&gt;AppModule</title>
<path fill="none" stroke="black" d="M1773,-122.11C1773,-141.34 1773,-169 1773,-169 1773,-169 1209.79,-169 1209.79,-169"/>
<polygon fill="black" stroke="black" points="1209.79,-165.5 1199.79,-169 1209.79,-172.5 1209.79,-165.5"/>
</g>
<!-- BookDisplayComponent -->
<g id="node5" class="node">
<title>BookDisplayComponent</title>
<polygon fill="#ffffb3" stroke="black" points="1685.72,-122 1530.28,-122 1530.28,-86 1685.72,-86 1685.72,-122"/>
<text text-anchor="middle" x="1608" y="-99.8" font-family="Times,serif" font-size="14.00">BookDisplayComponent</text>
</g>
<!-- BookDisplayComponent&#45;&gt;AppModule -->
<g id="edge5" class="edge">
<title>BookDisplayComponent&#45;&gt;AppModule</title>
<path fill="none" stroke="black" d="M1608,-122.3C1608,-140.27 1608,-165 1608,-165 1608,-165 1209.93,-165 1209.93,-165"/>
<polygon fill="black" stroke="black" points="1209.93,-161.5 1199.93,-165 1209.93,-168.5 1209.93,-161.5"/>
</g>
<!-- BookPageComponent -->
<g id="node6" class="node">
<title>BookPageComponent</title>
<polygon fill="#ffffb3" stroke="black" points="1512.38,-122 1373.62,-122 1373.62,-86 1512.38,-86 1512.38,-122"/>
<text text-anchor="middle" x="1443" y="-99.8" font-family="Times,serif" font-size="14.00">BookPageComponent</text>
</g>
<!-- BookPageComponent&#45;&gt;AppModule -->
<g id="edge6" class="edge">
<title>BookPageComponent&#45;&gt;AppModule</title>
<path fill="none" stroke="black" d="M1443,-122.03C1443,-138.4 1443,-160 1443,-160 1443,-160 1209.75,-160 1209.75,-160"/>
<polygon fill="black" stroke="black" points="1209.75,-156.5 1199.75,-160 1209.75,-163.5 1209.75,-156.5"/>
</g>
<!-- HomeComponent -->
<g id="node7" class="node">
<title>HomeComponent</title>
<polygon fill="#ffffb3" stroke="black" points="1355.55,-122 1240.45,-122 1240.45,-86 1355.55,-86 1355.55,-122"/>
<text text-anchor="middle" x="1298" y="-99.8" font-family="Times,serif" font-size="14.00">HomeComponent</text>
</g>
<!-- HomeComponent&#45;&gt;AppModule -->
<g id="edge7" class="edge">
<title>HomeComponent&#45;&gt;AppModule</title>
<path fill="none" stroke="black" d="M1298,-122.19C1298,-137.18 1298,-156 1298,-156 1298,-156 1210,-156 1210,-156"/>
<polygon fill="black" stroke="black" points="1210,-152.5 1200,-156 1210,-159.5 1210,-152.5"/>
</g>
<!-- InterestsComponent -->
<g id="node8" class="node">
<title>InterestsComponent</title>
<polygon fill="#ffffb3" stroke="black" points="1222.25,-122 1093.75,-122 1093.75,-86 1222.25,-86 1222.25,-122"/>
<text text-anchor="middle" x="1158" y="-99.8" font-family="Times,serif" font-size="14.00">InterestsComponent</text>
</g>
<!-- InterestsComponent&#45;&gt;AppModule -->
<g id="edge8" class="edge">
<title>InterestsComponent&#45;&gt;AppModule</title>
<path fill="none" stroke="black" d="M1158,-122.11C1158,-122.11 1158,-140.99 1158,-140.99"/>
<polygon fill="black" stroke="black" points="1154.5,-140.99 1158,-150.99 1161.5,-140.99 1154.5,-140.99"/>
</g>
<!-- NotificationToastComponent -->
<g id="node9" class="node">
<title>NotificationToastComponent</title>
<polygon fill="#ffffb3" stroke="black" points="1076.08,-122 895.92,-122 895.92,-86 1076.08,-86 1076.08,-122"/>
<text text-anchor="middle" x="986" y="-99.8" font-family="Times,serif" font-size="14.00">NotificationToastComponent</text>
</g>
<!-- NotificationToastComponent&#45;&gt;AppModule -->
<g id="edge9" class="edge">
<title>NotificationToastComponent&#45;&gt;AppModule</title>
<path fill="none" stroke="black" d="M986,-122.19C986,-137.18 986,-156 986,-156 986,-156 1105.92,-156 1105.92,-156"/>
<polygon fill="black" stroke="black" points="1105.92,-159.5 1115.92,-156 1105.92,-152.5 1105.92,-159.5"/>
</g>
<!-- RatingsComponent -->
<g id="node10" class="node">
<title>RatingsComponent</title>
<polygon fill="#ffffb3" stroke="black" points="878.11,-122 753.89,-122 753.89,-86 878.11,-86 878.11,-122"/>
<text text-anchor="middle" x="816" y="-99.8" font-family="Times,serif" font-size="14.00">RatingsComponent</text>
</g>
<!-- RatingsComponent&#45;&gt;AppModule -->
<g id="edge10" class="edge">
<title>RatingsComponent&#45;&gt;AppModule</title>
<path fill="none" stroke="black" d="M816,-122.03C816,-138.4 816,-160 816,-160 816,-160 1106.06,-160 1106.06,-160"/>
<polygon fill="black" stroke="black" points="1106.06,-163.5 1116.06,-160 1106.06,-156.5 1106.06,-163.5"/>
</g>
<!-- ReviewComponent -->
<g id="node11" class="node">
<title>ReviewComponent</title>
<polygon fill="#ffffb3" stroke="black" points="736.1,-122 611.9,-122 611.9,-86 736.1,-86 736.1,-122"/>
<text text-anchor="middle" x="674" y="-99.8" font-family="Times,serif" font-size="14.00">ReviewComponent</text>
</g>
<!-- ReviewComponent&#45;&gt;AppModule -->
<g id="edge11" class="edge">
<title>ReviewComponent&#45;&gt;AppModule</title>
<path fill="none" stroke="black" d="M674,-122.3C674,-140.27 674,-165 674,-165 674,-165 1106.32,-165 1106.32,-165"/>
<polygon fill="black" stroke="black" points="1106.32,-168.5 1116.32,-165 1106.32,-161.5 1106.32,-168.5"/>
</g>
<!-- SearchComponent -->
<g id="node12" class="node">
<title>SearchComponent</title>
<polygon fill="#ffffb3" stroke="black" points="593.92,-122 474.08,-122 474.08,-86 593.92,-86 593.92,-122"/>
<text text-anchor="middle" x="534" y="-99.8" font-family="Times,serif" font-size="14.00">SearchComponent</text>
</g>
<!-- SearchComponent&#45;&gt;AppModule -->
<g id="edge12" class="edge">
<title>SearchComponent&#45;&gt;AppModule</title>
<path fill="none" stroke="black" d="M534,-122.11C534,-141.34 534,-169 534,-169 534,-169 1106.09,-169 1106.09,-169"/>
<polygon fill="black" stroke="black" points="1106.09,-172.5 1116.09,-169 1106.09,-165.5 1106.09,-172.5"/>
</g>
<!-- UserComponent -->
<g id="node13" class="node">
<title>UserComponent</title>
<polygon fill="#ffffb3" stroke="black" points="455.76,-122 348.24,-122 348.24,-86 455.76,-86 455.76,-122"/>
<text text-anchor="middle" x="402" y="-99.8" font-family="Times,serif" font-size="14.00">UserComponent</text>
</g>
<!-- UserComponent&#45;&gt;AppModule -->
<g id="edge13" class="edge">
<title>UserComponent&#45;&gt;AppModule</title>
<path fill="none" stroke="black" d="M402,-122.03C402,-142.77 402,-174 402,-174 402,-174 1106.28,-174 1106.28,-174"/>
<polygon fill="black" stroke="black" points="1106.28,-177.5 1116.28,-174 1106.28,-170.5 1106.28,-177.5"/>
</g>
<!-- AppComponent  -->
<g id="node16" class="node">
<title>AppComponent </title>
<polygon fill="#80b1d3" stroke="black" points="1212.44,-252 1103.56,-252 1103.56,-216 1212.44,-216 1212.44,-252"/>
<text text-anchor="middle" x="1158" y="-229.8" font-family="Times,serif" font-size="14.00">AppComponent </text>
</g>
<!-- AppModule&#45;&gt;AppComponent  -->
<g id="edge15" class="edge">
<title>AppModule&#45;&gt;AppComponent </title>
<path fill="none" stroke="black" stroke-dasharray="1,5" d="M1158,-187.11C1158,-187.11 1158,-205.99 1158,-205.99"/>
<polygon fill="black" stroke="black" points="1154.5,-205.99 1158,-215.99 1161.5,-205.99 1154.5,-205.99"/>
</g>
<!-- AppRoutingModule -->
<g id="node15" class="node">
<title>AppRoutingModule</title>
<polygon fill="#8dd3c7" stroke="black" points="324.27,-122 321.27,-126 300.27,-126 297.27,-122 195.73,-122 195.73,-86 324.27,-86 324.27,-122"/>
<text text-anchor="middle" x="260" y="-99.8" font-family="Times,serif" font-size="14.00">AppRoutingModule</text>
</g>
<!-- AppRoutingModule&#45;&gt;AppModule -->
<g id="edge14" class="edge">
<title>AppRoutingModule&#45;&gt;AppModule</title>
<path fill="none" stroke="black" d="M260,-122.29C260,-144.21 260,-178 260,-178 260,-178 1106.19,-178 1106.19,-178"/>
<polygon fill="black" stroke="black" points="1106.19,-181.5 1116.19,-178 1106.19,-174.5 1106.19,-181.5"/>
</g>
<!-- ErrorInterceptor -->
<g id="node17" class="node">
<title>ErrorInterceptor</title>
<ellipse fill="#fdb462" stroke="black" cx="98" cy="-104" rx="73.53" ry="18"/>
<text text-anchor="middle" x="98" y="-99.8" font-family="Times,serif" font-size="14.00">ErrorInterceptor</text>
</g>
<!-- ErrorInterceptor&#45;&gt;AppModule -->
<g id="edge16" class="edge">
<title>ErrorInterceptor&#45;&gt;AppModule</title>
<path fill="none" stroke="black" d="M98,-122.32C98,-145.66 98,-183 98,-183 98,-183 1106.12,-183 1106.12,-183"/>
<polygon fill="black" stroke="black" points="1106.12,-186.5 1116.12,-183 1106.12,-179.5 1106.12,-186.5"/>
</g>
</g>
</svg>
